<svg xmlns="http://www.w3.org/2000/svg" viewBox="0 0 98.08 98.08"><defs><style>.cls-1{fill:#147cf7;}</style></defs><g id="Layer_2" data-name="Layer 2"><g id="Layer_1-2" data-name="Layer 1"><path class="cls-1" d="M76.82,7.47,58.79,0,50.72,19.89a28.11,28.11,0,0,1,17.62,7.63Z"/><path class="cls-1" d="M39.28,0l-18,7.47,8.48,20.05a28.09,28.09,0,0,1,17.62-7.63Z"/><path class="cls-1" d="M98.08,39.28l-7.47-18L70.49,29.77a29.44,29.44,0,0,1,7.08,17.84Z"/><path class="cls-1" d="M70.49,68.31l20.12,8.51,7.47-18L77.57,50.47A29.44,29.44,0,0,1,70.49,68.31Z"/><path class="cls-1" d="M58.79,98.08l18-7.47-8.48-20a28.11,28.11,0,0,1-17.62,7.63Z"/><path class="cls-1" d="M7.47,21.26,0,39.28l20.51,8.33a29.38,29.38,0,0,1,7.08-17.84Z"/><path class="cls-1" d="M21.26,90.61l18,7.47,8.08-19.89a28.09,28.09,0,0,1-17.62-7.63Z"/><path class="cls-1" d="M0,58.79l7.47,18,20.12-8.51a29.38,29.38,0,0,1-7.08-17.84Z"/><path class="cls-1" d="M49,9.59A39.45,39.45,0,1,0,88.49,49,39.45,39.45,0,0,0,49,9.59Zm0,68.65c-15.78,0-28.56-13.07-28.56-29.2S33.26,19.83,49,19.83,77.6,32.91,77.6,49,64.81,78.24,49,78.24Z"/></g></g></svg>